<?xml version="1.0" encoding="UTF-8"?>
<!--Generator: Apple Native CoreSVG 175.5-->
<!DOCTYPE svg
PUBLIC "-//W3C//DTD SVG 1.1//EN"
       "http://www.w3.org/Graphics/SVG/1.1/DTD/svg11.dtd">
<svg version="1.1" xmlns="http://www.w3.org/2000/svg" xmlns:xlink="http://www.w3.org/1999/xlink" width="17.3633" height="18.8379">
 <g>
  <rect height="18.8379" opacity="0" width="17.3633" x="0" y="0"/>
  <path d="M2.6709 18.8379L14.6924 18.8379C16.4795 18.8379 17.3633 18.2373 17.3633 16.9629C17.3633 14.0869 13.8232 10.6982 8.68164 10.6982C3.54004 10.6982 0 14.0869 0 16.9629C0 18.2373 0.883789 18.8379 2.6709 18.8379ZM2.60254 16.7725C2.41699 16.7725 2.34863 16.6992 2.34863 16.5576C2.34863 15.249 4.6582 12.7637 8.68164 12.7637C12.7002 12.7637 15.0146 15.249 15.0146 16.5576C15.0146 16.6992 14.9512 16.7725 14.7607 16.7725ZM8.68164 9.6875C11.1084 9.6875 13.0518 7.57324 13.0518 4.95605C13.0518 2.39746 11.0938 0.327148 8.68164 0.327148C6.28418 0.327148 4.30664 2.41699 4.31641 4.9707C4.32617 7.57812 6.25977 9.6875 8.68164 9.6875ZM8.68164 7.62207C7.46582 7.62207 6.44043 6.51855 6.43555 4.96094C6.43066 3.48145 7.4707 2.39258 8.68164 2.39258C9.90723 2.39258 10.9326 3.47168 10.9326 4.95605C10.9326 6.50879 9.91211 7.62207 8.68164 7.62207Z" fill="#8e8e93"/>
 </g>
</svg>
