<?xml version="1.0" encoding="UTF-8"?>
<!--Generator: Apple Native CoreSVG 175.5-->
<!DOCTYPE svg
PUBLIC "-//W3C//DTD SVG 1.1//EN"
       "http://www.w3.org/Graphics/SVG/1.1/DTD/svg11.dtd">
<svg version="1.1" xmlns="http://www.w3.org/2000/svg" xmlns:xlink="http://www.w3.org/1999/xlink" width="20.0211" height="21.6028">
 <g>
  <rect height="21.6028" opacity="0" width="20.0211" x="0" y="0"/>
  <path d="M1.4324 17.0922L9.19869 21.3824C9.72383 21.6763 10.2942 21.6763 10.8291 21.3824L18.5856 17.0922C19.5586 16.5498 20.0211 15.9798 20.0211 14.6144L20.0211 6.60054C20.0211 5.53833 19.6252 4.86675 18.7179 4.35718L11.8877 0.564935C10.6595-0.11821 9.36164-0.11821 8.13342 0.564935L1.30986 4.35718C0.395937 4.86675 0 5.53833 0 6.60054L0 14.6144C0 15.9798 0.469199 16.5498 1.4324 17.0922ZM2.62495 15.4305C2.11444 15.1424 1.93155 14.8449 1.93155 14.3513L1.93155 7.42233L9.00485 11.3799L9.00485 19.0102ZM17.3997 15.4305L11.0132 19.0102L11.0132 11.3799L18.0896 7.42233L18.0896 14.3513C18.0896 14.8449 17.9067 15.1424 17.3997 15.4305ZM10.0123 9.60896L3.03225 5.72646L5.53433 4.31469L12.5268 8.2012ZM14.5836 7.07652L7.58659 3.19046L9.00509 2.38996C9.68252 2.01307 10.3324 2.00641 11.0196 2.38996L16.9955 5.72646Z" fill="#000000"/>
 </g>
</svg>
