<?xml version="1.0" encoding="UTF-8"?>
<!--Generator: Apple Native CoreSVG 175.5-->
<!DOCTYPE svg
PUBLIC "-//W3C//DTD SVG 1.1//EN"
       "http://www.w3.org/Graphics/SVG/1.1/DTD/svg11.dtd">
<svg version="1.1" xmlns="http://www.w3.org/2000/svg" xmlns:xlink="http://www.w3.org/1999/xlink" width="19.6338" height="19.8047">
 <g>
  <rect height="19.8047" opacity="0" width="19.6338" x="0" y="0"/>
  <path d="M0 8.22266C0 12.7686 3.68652 16.4502 8.22754 16.4502C9.73633 16.4502 11.1328 16.0303 12.3242 15.3125L16.2451 19.2383C16.626 19.6191 17.1387 19.7998 17.6709 19.7998C18.7988 19.7998 19.6338 18.9404 19.6338 17.8223C19.6338 17.3047 19.4482 16.8066 19.0674 16.4258L15.1904 12.5293C15.9912 11.2939 16.4551 9.81445 16.4551 8.22266C16.4551 3.68164 12.7686 0 8.22754 0C3.68652 0 0 3.68164 0 8.22266ZM2.7832 8.22266C2.7832 5.21973 5.22461 2.7832 8.22754 2.7832C11.2305 2.7832 13.667 5.21973 13.667 8.22266C13.667 11.2305 11.2305 13.667 8.22754 13.667C5.22461 13.667 2.7832 11.2305 2.7832 8.22266Z" fill="#000000" fill-opacity="0.85"/>
 </g>
</svg>
