<?xml version="1.0" encoding="UTF-8"?>
<!--Generator: Apple Native CoreSVG 175.5-->
<!DOCTYPE svg
PUBLIC "-//W3C//DTD SVG 1.1//EN"
       "http://www.w3.org/Graphics/SVG/1.1/DTD/svg11.dtd">
<svg version="1.1" xmlns="http://www.w3.org/2000/svg" xmlns:xlink="http://www.w3.org/1999/xlink" width="24.7656" height="23.1299">
 <g>
  <rect height="23.1299" opacity="0" width="24.7656" x="0" y="0"/>
  <path d="M9.58496 19.7681L15.1758 19.7681L15.1758 12.8149C15.1758 12.3462 14.8779 12.0435 14.4092 12.0435L10.3662 12.0435C9.89258 12.0435 9.58496 12.3462 9.58496 12.8149ZM5.75684 21.5112L18.9746 21.5112C20.6104 21.5112 21.5869 20.5493 21.5869 18.9819L21.5869 8.10791L19.0674 6.37451L19.0674 18.0688C19.0674 18.6597 18.7402 18.9917 18.1641 18.9917L6.56738 18.9917C5.98633 18.9917 5.65918 18.6597 5.65918 18.0688L5.65918 6.37939L3.13965 8.10791L3.13965 18.9819C3.13965 20.5493 4.11133 21.5112 5.75684 21.5112ZM0 10.2075C0 10.896 0.498047 11.4136 1.2793 11.4136C1.63574 11.4136 1.9873 11.2378 2.28516 10.9888L11.8506 2.96631C12.1973 2.66846 12.583 2.66846 12.9346 2.96631L22.4854 10.9888C22.7832 11.2378 23.1348 11.4136 23.4912 11.4136C24.2334 11.4136 24.7656 10.9497 24.7656 10.2222C24.7656 9.82666 24.585 9.46533 24.2627 9.19189L14.1016 0.651855C13.0664-0.217285 11.7236-0.217285 10.6836 0.651855L0.507812 9.19678C0.180664 9.47021 0 9.85107 0 10.2075ZM18.2812 4.8999L21.5869 7.66846L21.5869 2.59521C21.5869 2.13623 21.2939 1.84326 20.835 1.84326L19.0381 1.84326C18.584 1.84326 18.2812 2.13623 18.2812 2.59521Z" fill="#000000"/>
 </g>
</svg>
