<?xml version="1.0" encoding="UTF-8"?>
<!--Generator: Apple Native CoreSVG 175.5-->
<!DOCTYPE svg
PUBLIC "-//W3C//DTD SVG 1.1//EN"
       "http://www.w3.org/Graphics/SVG/1.1/DTD/svg11.dtd">
<svg version="1.1" xmlns="http://www.w3.org/2000/svg" xmlns:xlink="http://www.w3.org/1999/xlink" width="19.4329" height="19.6092">
 <g>
  <rect height="19.6092" opacity="0" width="19.4329" x="0" y="0"/>
  <path d="M0 8.06624C0 12.5215 3.6172 16.1356 8.06935 16.1356C9.64746 16.1356 11.1008 15.6695 12.3242 14.8788L16.5668 19.1281C16.8908 19.4521 17.3235 19.6061 17.7758 19.6061C18.7348 19.6061 19.4329 18.8782 19.4329 17.9289C19.4329 17.486 19.2723 17.0661 18.9554 16.7493L14.7514 12.5222C15.6268 11.2602 16.1387 9.72558 16.1387 8.06624C16.1387 3.6141 12.5215 0 8.06935 0C3.6172 0 0 3.6141 0 8.06624ZM2.37795 8.06624C2.37795 4.92645 4.92956 2.37795 8.06935 2.37795C11.2091 2.37795 13.7576 4.92645 13.7576 8.06624C13.7576 11.2091 11.2091 13.7576 8.06935 13.7576C4.92956 13.7576 2.37795 11.2091 2.37795 8.06624Z" fill="#000000" fill-opacity="0.85"/>
 </g>
</svg>
