<?xml version="1.0" encoding="UTF-8"?>
<!--Generator: Apple Native CoreSVG 175.5-->
<!DOCTYPE svg
PUBLIC "-//W3C//DTD SVG 1.1//EN"
       "http://www.w3.org/Graphics/SVG/1.1/DTD/svg11.dtd">
<svg version="1.1" xmlns="http://www.w3.org/2000/svg" xmlns:xlink="http://www.w3.org/1999/xlink" width="24.7656" height="23.1299">
 <g>
  <rect height="23.1299" opacity="0" width="24.7656" x="0" y="0"/>
  <path d="M15.0146 18.9917L9.74609 18.9917L9.74609 12.8589C9.74609 12.3901 10.0586 12.0874 10.5273 12.0874L14.2432 12.0874C14.7119 12.0874 15.0146 12.3901 15.0146 12.8589ZM3.35449 19.0942C3.35449 20.5786 4.3457 21.5112 5.91309 21.5112L18.8574 21.5112C20.4248 21.5112 21.4062 20.5786 21.4062 19.0942L21.4062 12.1753L13.0176 5.12939C12.6221 4.79736 12.1484 4.80225 11.7578 5.12939L3.35449 12.1753ZM0 10.2075C0 10.896 0.498047 11.4136 1.2793 11.4136C1.63574 11.4136 1.9873 11.2378 2.28516 10.9888L11.8506 2.96631C12.1973 2.66846 12.583 2.66846 12.9346 2.96631L22.4854 10.9888C22.7832 11.2378 23.1348 11.4136 23.4912 11.4136C24.2334 11.4136 24.7656 10.9497 24.7656 10.2222C24.7656 9.82666 24.585 9.46533 24.2627 9.19189L14.1016 0.651855C13.0664-0.217285 11.7236-0.217285 10.6836 0.651855L0.507812 9.19678C0.180664 9.4751 0 9.85107 0 10.2075ZM18.1934 4.8999L21.499 7.66846L21.499 2.59521C21.499 2.13623 21.2061 1.84326 20.7471 1.84326L18.9502 1.84326C18.4961 1.84326 18.1934 2.13623 18.1934 2.59521Z" fill="#000000"/>
 </g>
</svg>
