<?xml version="1.0" encoding="UTF-8"?>
<!--Generator: Apple Native CoreSVG 175.5-->
<!DOCTYPE svg
PUBLIC "-//W3C//DTD SVG 1.1//EN"
       "http://www.w3.org/Graphics/SVG/1.1/DTD/svg11.dtd">
<svg version="1.1" xmlns="http://www.w3.org/2000/svg" xmlns:xlink="http://www.w3.org/1999/xlink" width="20.0908" height="21.4415">
 <g>
  <rect height="21.4415" opacity="0" width="20.0908" x="0" y="0"/>
  <path d="M10.7967 21.4146C10.9116 21.3919 11.0199 21.344 11.1379 21.2801L18.6353 17.111C19.615 16.5685 20.0908 15.9822 20.0908 14.6035L20.0908 6.67617C20.0908 6.44842 20.0744 6.26373 20.0344 6.08615L10.7967 11.2584ZM9.29418 21.4146L9.29418 11.2584L0.0563872 6.08615C0.0133204 6.26373 0 6.44842 0 6.67617L0 14.6035C0 15.9822 0.48252 16.5685 1.45549 17.111L8.95957 21.2801C9.06785 21.344 9.17924 21.3919 9.29418 21.4146ZM10.0487 9.91575L14.1814 7.62078L4.81846 2.38416L1.34316 4.31959C1.10037 4.4492 0.899745 4.58192 0.724863 4.74703ZM15.7717 6.74993L19.366 4.74703C19.2009 4.58192 19.0002 4.4492 18.7574 4.31959L11.9405 0.527344C11.3231 0.182441 10.6808 0 10.0519 0C9.41312 0 8.77084 0.182441 8.1534 0.527344L6.36351 1.52617Z" fill="#000000"/>
 </g>
</svg>
