<?xml version="1.0" encoding="UTF-8"?>
<!--Generator: Apple Native CoreSVG 175.5-->
<!DOCTYPE svg
PUBLIC "-//W3C//DTD SVG 1.1//EN"
       "http://www.w3.org/Graphics/SVG/1.1/DTD/svg11.dtd">
<svg version="1.1" xmlns="http://www.w3.org/2000/svg" xmlns:xlink="http://www.w3.org/1999/xlink" width="16.6162" height="18.1543">
 <g>
  <rect height="18.1543" opacity="0" width="16.6162" x="0" y="0"/>
  <path d="M1.9043 18.1543L14.7168 18.1543C15.9082 18.1543 16.6162 17.5781 16.6162 16.6211C16.6162 14.1211 13.374 10.7031 8.30566 10.7031C3.24707 10.7031 0 14.1211 0 16.6211C0 17.5781 0.712891 18.1543 1.9043 18.1543ZM8.31055 8.99414C10.5078 8.99414 12.3096 7.07031 12.3096 4.61426C12.3096 2.23145 10.4932 0.332031 8.31055 0.332031C6.12793 0.332031 4.30664 2.25586 4.31641 4.62891C4.32129 7.07031 6.11328 8.99414 8.31055 8.99414Z" fill="#000000" fill-opacity="0.85"/>
 </g>
</svg>
